<svg width="65" height="102" viewBox="0 0 65 102" fill="none" xmlns="http://www.w3.org/2000/svg">
<path d="M39.2904 59.1322C39.9335 55.5456 41.0502 52.5271 42.6808 49.702C43.0364 49.0856 43.3684 48.2356 44.3059 48.4568C45.0934 48.642 45.1643 49.4436 45.2976 50.1084C46.0449 53.8318 45.8977 57.3797 44.0753 60.8972C43.1697 62.6442 42.3544 64.2793 40.7238 65.4513C40.2404 65.7982 39.7543 66.4685 40.0474 67.1002C40.9349 69.0116 40.5668 71.118 41.1863 73.1082C42.128 76.1392 42.5614 79.3264 43.2156 82.4472C43.2864 82.7817 43.392 83.1092 43.4767 83.4409C43.7392 84.472 44.0767 84.6392 44.8698 83.7422C48.0033 80.2026 50.3312 76.2097 51.9118 71.7745C51.9882 71.5603 52.0382 71.3377 52.1091 71.1221C53.1438 67.9902 53.1244 68.0165 50.6465 66.0995C47.5408 63.6974 46.1046 60.5047 46.2435 56.5947C46.2893 55.2844 47.1033 55.612 47.7922 55.8981C49.6048 56.6513 50.7534 58.1509 51.816 59.6962C52.4827 60.6664 53.0216 61.7237 53.7994 63.0533C54.1245 60.5835 53.9786 58.4522 53.9078 56.3321C53.873 55.3024 52.8161 55.2844 52.116 55.0398C49.8298 54.2423 48.7922 52.5188 49.3728 50.3337C49.9742 48.0739 52.066 46.4886 53.98 46.8424C56.2982 47.2709 57.9594 49.4422 57.6718 51.6273C57.5441 52.5976 57.0079 53.2997 56.326 53.9396C55.5218 54.6929 55.1148 55.5705 55.4717 56.697C55.7412 57.547 55.3759 58.3997 55.4245 59.2456C55.469 60.032 55.6634 60.8087 55.8162 61.7403C57.3593 60.8115 58.3427 59.3741 59.8539 58.5559C60.7456 58.0735 61.6721 57.6257 62.5735 57.1766C64.2833 56.3238 65.2917 57.1213 64.925 59.0037C64.4389 61.5026 63.0165 63.4914 61.0415 65.056C59.7511 66.0788 58.3899 67.0172 56.7399 67.4346C55.3537 67.7857 54.5231 68.6744 54.1592 70.0786C52.5869 76.1461 49.5687 81.394 45.074 85.7947C44.5017 86.3544 44.392 87.0261 44.5684 87.8305C45.4685 91.9492 46.7505 95.9574 48.0228 99.9697C48.0741 100.131 48.2019 100.277 48.2256 100.438C48.3006 100.961 48.7686 101.638 48.0131 101.935C47.2991 102.217 46.9727 101.519 46.7894 101.021C46.0421 98.9939 45.3157 96.9567 44.6809 94.8918C43.9448 92.498 43.285 90.0792 42.6544 87.6564C42.4642 86.9252 41.9961 86.7041 41.3752 86.4595C38.7862 85.4367 36.2222 84.3725 33.9262 82.7402C30.4219 80.251 28.1246 76.8344 26.2272 73.0972C26.0286 72.706 26.0189 72.2126 25.962 71.762C25.8981 71.2548 25.8161 70.6854 26.3648 70.391C26.8148 70.1477 27.2301 70.4214 27.6454 70.6494C32.6498 73.3985 37.3236 76.5497 40.8641 81.4866C41.1697 80.005 40.6891 78.8067 40.464 77.6637C39.8404 74.4876 39.4946 71.2603 38.6292 68.1257C38.1973 66.5625 36.8194 66.0401 35.6777 65.5287C31.4331 63.6228 28.0023 60.7369 24.9341 57.3452C20.8159 52.7938 17.6115 47.6537 15.1934 42.0396C14.6211 40.7127 13.935 40.2857 12.4793 40.428C8.54027 40.8109 4.81648 40.2622 1.88717 37.2284C1.73022 37.0653 1.55243 36.9174 1.41631 36.7378C0.549601 35.592 -0.600452 34.2914 0.36904 32.9204C1.24825 31.6778 2.71499 32.5444 3.98867 32.7656C7.18882 33.3226 9.98339 34.7503 12.7905 36.7074C12.7613 34.8097 12.1057 33.3433 11.8265 31.8064C11.6682 30.9329 10.9043 30.6979 10.2112 30.4505C7.63884 29.5314 6.0846 27.0699 6.47629 24.4936C6.80547 22.3333 9.52364 20.1261 11.9279 20.0667C13.7127 20.0238 15.8337 21.7059 16.6171 23.7873C17.4143 25.9034 16.9518 28.3787 14.9642 29.5812C13.2724 30.6053 13.2127 31.6958 13.7322 33.2244C14.0392 34.1283 14.3253 35.0392 14.6767 36.12C15.8476 35.1594 16.0268 33.8547 16.6296 32.8305C17.9671 30.5583 19.7825 28.8058 21.8923 27.32C23.2882 26.3373 24.1591 26.669 24.3522 28.3704C24.7688 32.033 22.9243 34.7987 20.4186 37.2022C19.4769 38.1061 18.3546 38.804 17.1504 39.3306C16.3504 39.6817 16.1601 40.2096 16.5115 40.9726C20.5325 49.7186 25.7133 57.5525 34.1068 62.7935C35.3082 63.544 36.65 65.027 37.882 64.4603C38.5445 64.1562 37.6653 61.978 37.5097 60.6429C36.1499 49.0082 35.2985 37.3445 35.5319 25.62C35.5499 24.7064 35.493 23.7915 35.5333 22.8793C35.5833 21.7335 35.0777 21.2774 33.9596 20.8752C29.0996 19.1254 25.7383 15.8954 24.6216 10.7056C24.1841 8.67525 25.0869 7.83907 27.0634 8.48313C30.2233 9.51143 32.522 11.6634 34.3888 14.324C34.7735 14.8727 35.136 15.4379 35.5083 15.9949C35.6708 15.9853 35.8347 15.977 35.9972 15.9673C35.9972 14.0696 36.0069 12.172 35.993 10.2743C35.9861 9.41743 35.4541 9.01385 34.6971 8.68353C32.4331 7.69393 31.74 6.33255 32.1512 3.9249C32.5331 1.68449 33.9207 0.22636 35.8541 0.0300996C38.1084 -0.19795 39.9488 0.880099 40.7835 2.91596C41.6113 4.93662 41.1558 7.06368 39.2918 8.1832C37.8209 9.06637 37.4403 10.1914 37.5139 11.7256C37.5736 12.9557 37.5264 14.1913 37.5264 15.7807C39.446 13.3897 41.2794 11.4243 43.7489 10.1306C44.9407 9.50728 46.2116 9.21013 47.4644 8.8646C48.6006 8.55224 48.9853 9.33865 48.977 10.3545C48.9464 14.0199 47.1713 16.7454 44.267 18.8006C42.6281 19.9602 40.8099 20.813 38.7737 20.9982C37.7375 21.0922 37.35 21.6257 37.3695 22.5517C37.582 32.3067 36.9069 42.0921 38.2862 51.8056C38.6084 54.1041 38.2306 56.4924 39.2904 59.1322ZM40.7668 84.2315C37.9306 79.1287 33.6568 75.4744 28.7524 72.4669C28.4912 72.3066 28.076 72.12 27.8134 72.4766C27.5579 72.8235 27.9246 73.0875 28.0551 73.3874C30.5163 79.0237 35.2263 82.0851 40.7668 84.2315ZM12.0502 21.7155C9.9459 21.6906 8.33887 23.24 8.30692 25.327C8.2722 27.4707 9.83201 29.1734 11.8196 29.1624C13.7225 29.1527 15.5281 27.461 15.5698 25.649C15.6142 23.6768 13.878 21.7363 12.0502 21.7155ZM47.2047 11.8292C47.2436 10.2868 46.2657 10.6074 45.4865 10.9571C42.0489 12.5023 39.439 14.9128 37.9153 18.4026C37.7848 18.7025 37.432 18.9858 37.6861 19.3245C37.9681 19.6976 38.4251 19.612 38.7945 19.4779C40.2293 18.9513 41.7641 18.6679 43.0336 17.7419C45.1032 16.2327 46.7505 14.4331 47.2047 11.8292ZM35.1763 18.7647C34.6027 17.7157 34.0373 16.5381 33.3401 15.4421C31.9845 13.3081 30.2233 11.5763 27.8815 10.519C27.4954 10.3448 27.0009 10.132 26.5787 10.4844C26.2495 10.7581 26.4453 11.1202 26.5425 11.4326C27.7898 15.4241 30.6164 17.8497 34.429 19.2954C34.836 19.4502 35.0888 19.3507 35.1763 18.7647ZM39.5904 4.81361C39.6751 3.09978 38.3251 1.61537 36.5916 1.51724C35.1568 1.43708 33.8554 2.81644 33.7568 4.52336C33.654 6.30905 34.8124 7.49906 36.6986 7.54744C38.2987 7.5889 39.5084 6.44451 39.5904 4.81361ZM10.4237 39.097C10.9196 38.9118 11.8057 39.4011 12.0057 38.5912C12.1654 37.9471 11.4126 37.6223 10.9029 37.2754C8.60833 35.7164 6.09432 34.7102 3.35669 34.2596C2.97195 34.1961 2.48025 34.0053 2.23579 34.3868C1.93578 34.8539 2.37886 35.2105 2.64693 35.574C4.5623 38.1655 7.45689 38.6133 10.4237 39.097ZM22.9437 29.8134C22.9118 29.6876 22.934 29.2453 22.7285 29.0781C22.3646 28.7809 21.984 29.1071 21.6604 29.3421C18.9213 31.3268 17.374 34.138 16.1879 37.1939C16.1156 37.3791 16.0976 37.6458 16.1782 37.8144C16.2851 38.037 16.5018 37.9844 16.7546 37.9015C19.2561 37.0861 22.7965 32.5942 22.9437 29.8134ZM53.355 53.8912C55.2426 53.9562 56.0787 53.1698 56.1329 51.2804C56.1843 49.5099 55.3356 48.5314 53.6953 48.4706C51.9966 48.407 51.0049 49.5431 50.941 51.6273C50.8882 53.3135 51.4354 53.8263 53.355 53.8912ZM43.5281 51.7752C41.5238 54.95 40.7932 58.4882 40.2015 62.0651C40.1376 62.4507 40.171 62.9372 40.6599 63.0506C41.0099 63.1321 41.2849 62.8418 41.5044 62.5627C44.0531 59.3216 44.2059 55.6272 43.5281 51.7752ZM55.6981 66.0498C58.1246 65.8867 63.0304 61.3588 63.1124 59.5455C63.1416 58.8945 62.711 58.7936 62.1915 59.0327C59.3178 60.3526 57.1135 62.3885 55.637 65.1804C55.3898 65.6448 55.5009 66.0207 55.6981 66.0498ZM53.0508 65.5259C51.9757 62.2448 50.2229 59.8122 47.663 57.6713C47.5964 61.099 49.6992 64.159 53.0508 65.5259Z" fill="black"/>
</svg>
