<svg width="103" height="115" viewBox="0 0 103 115" fill="none" xmlns="http://www.w3.org/2000/svg">
<path d="M61.7862 109.097C61.5764 109.121 61.3732 108.993 61.3093 108.783C61.2791 108.684 58.3232 98.6599 60.2289 78.1356C62.1119 57.852 53.6142 42.6813 53.5282 42.5306C53.4062 42.3162 53.4801 42.0436 53.693 41.9214C53.9057 41.7986 54.1782 41.8735 54.3001 42.0872C54.3878 42.2404 63.0253 57.6419 61.1146 78.2187C59.2275 98.5414 62.1305 108.426 62.1599 108.523C62.2314 108.76 62.0991 109.009 61.8638 109.08C61.8382 109.088 61.8123 109.094 61.7862 109.097Z" fill="white"/>
<path d="M45.4314 32.3356C45.4282 32.336 45.4249 32.3364 45.4217 32.3368C45.2742 32.3508 45.1293 32.2901 45.0356 32.1755C44.9318 32.0481 42.4895 29.0277 42.8782 26.1989C43.0379 25.0359 43.6471 24.0772 44.6901 23.3485C45.3707 22.8721 46.2679 22.8401 46.9228 23.2695C49.5236 24.9708 46.1629 31.3804 45.7707 32.1055C45.701 32.2334 45.5746 32.3187 45.4314 32.3356ZM45.7543 23.8673C45.5616 23.89 45.3693 23.9619 45.1978 24.0812C44.3556 24.6698 43.8848 25.4028 43.7586 26.3218C43.5131 28.1113 44.6654 30.0976 45.3112 31.046C46.3015 29.0152 47.8845 24.9645 46.4359 24.0177C46.2391 23.888 45.9968 23.8387 45.7543 23.8673Z" fill="white"/>
<path d="M43.3494 27.6447C43.1834 27.6642 43.0142 27.5891 42.9195 27.4374C42.8549 27.3333 41.3407 24.8571 42.0693 22.3937C42.4805 21.0036 43.5146 19.913 45.1431 19.1539C47.7757 17.9261 49.3913 18.941 50.0265 20.3002C50.9376 22.2512 50.1003 25.3098 47.6169 26.4828C47.3947 26.5874 47.1297 26.4917 47.0246 26.2687C46.9194 26.0457 47.0146 25.7799 47.2374 25.6745C49.2613 24.7179 49.954 22.2482 49.2204 20.6778C48.6257 19.4043 47.2766 19.1438 45.518 19.9628C44.1333 20.6087 43.2597 21.5101 42.9235 22.6427C42.3067 24.7173 43.6603 26.9432 43.6741 26.9648C43.8034 27.1743 43.7398 27.4491 43.5312 27.5794C43.4746 27.6166 43.4121 27.6373 43.3494 27.6447Z" fill="white"/>
<path d="M44.4889 30.9274C44.4687 30.9298 44.4476 30.9309 44.4263 30.9301C44.2216 30.925 39.3997 30.7787 38.2929 27.9027C37.7687 26.5418 38.115 25.2417 39.1537 24.6672C40.1116 24.1374 41.7945 24.2788 43.3827 26.4218C43.5293 26.6193 43.4887 26.8993 43.2914 27.0462C43.094 27.1932 42.8156 27.1522 42.669 26.9541C41.5023 25.3803 40.2779 25.0652 39.5837 25.4489C38.9518 25.7986 38.7666 26.6555 39.1229 27.5815C40.0158 29.9009 44.4031 30.0367 44.4469 30.0375C44.6928 30.0437 44.8872 30.2482 44.8812 30.4949C44.8752 30.7197 44.7052 30.9019 44.4889 30.9274Z" fill="white"/>
<path d="M45.9102 38.7813C45.456 38.8349 44.686 38.659 44.0415 37.1879C42.7052 34.1362 44.9595 31.6885 45.056 31.586C45.1178 31.5202 45.1986 31.4748 45.2866 31.4564C45.3259 31.4471 46.2589 31.2574 47.0256 31.8937C47.6659 32.4252 47.9765 33.34 47.9491 34.6137C47.9009 36.8407 47.1004 38.5486 46.0026 38.7671C45.9734 38.7725 45.9428 38.7775 45.9102 38.7813ZM45.6025 32.3154C45.2108 32.7924 43.8948 34.6335 44.8559 36.8293C45.1678 37.5418 45.5416 37.9538 45.8291 37.8913C46.3049 37.7967 47.0167 36.5679 47.0597 34.5942C47.0808 33.6211 46.8729 32.9256 46.4587 32.5815C46.154 32.3288 45.7921 32.3057 45.6025 32.3154Z" fill="white"/>
<path d="M50.2843 31.9292C48.5023 32.1392 46.2325 31.8244 45.6185 31.7299C45.4457 31.703 45.3043 31.5774 45.2572 31.4081C45.2101 31.2388 45.2663 31.058 45.4002 30.9458C45.7698 30.6363 49.0708 27.9355 51.1493 28.499C51.7811 28.6712 52.2477 29.1281 52.4979 29.8226C52.7234 30.4483 52.5274 30.8762 52.3235 31.1256C51.946 31.5877 51.1762 31.824 50.2843 31.9292ZM46.819 30.9827C48.7901 31.1858 51.1333 31.1729 51.6366 30.5584C51.6777 30.5084 51.7622 30.4047 51.6623 30.1252C51.5089 29.6999 51.2729 29.4571 50.919 29.3605C49.8458 29.0695 48.0129 30.1346 46.819 30.9827Z" fill="white"/>
<path d="M52.2799 36.4608C52.1342 36.478 51.9857 36.4882 51.8348 36.49C49.8083 36.5195 47.8492 35.1986 46.8429 33.1253C46.7353 32.9033 46.8271 32.6365 47.0482 32.5287C47.2687 32.4202 47.5353 32.5131 47.643 32.7351C48.485 34.4715 50.1643 35.6218 51.8211 35.5981C53.1742 35.5775 54.2577 34.8096 54.8746 33.4338C55.2419 32.6146 55.2698 31.9358 54.957 31.4175C54.2242 30.2035 51.906 30.0513 51.8826 30.0494C51.6377 30.035 51.4505 29.8237 51.4645 29.5774C51.4787 29.3318 51.6875 29.1416 51.9338 29.1577C52.0479 29.1642 54.7403 29.3375 55.7171 30.953C56.192 31.738 56.1816 32.696 55.6864 33.8001C54.9974 35.3347 53.7711 36.2851 52.2799 36.4608Z" fill="white"/>
<path d="M51.2125 29.3018C51.0727 29.3183 50.93 29.3278 50.785 29.3289C50.5396 29.332 50.3381 29.1343 50.3349 28.888C50.3316 28.6411 50.5319 28.4406 50.7746 28.4366C52.2983 28.4192 53.5537 27.2767 53.7729 26.2197C53.8751 25.7263 53.8007 25.0502 52.8643 24.6268C51.0035 23.7857 48.3753 26.5846 47.5197 27.7346C47.3727 27.9321 47.0939 27.9723 46.897 27.8253C46.7001 27.6777 46.6592 27.3986 46.8061 27.2004C46.9491 27.0081 50.3385 22.5058 53.2295 23.8131C54.3471 24.3183 54.876 25.2865 54.6438 26.4029C54.3757 27.6917 53.0153 29.0886 51.2125 29.3018Z" fill="white"/>
<path d="M40.9909 33.669C40.0872 33.7755 39.248 33.5586 38.5309 33.0275C37.855 32.5267 37.576 31.9978 37.7022 31.4551C38.0042 30.1503 40.7623 29.5878 41.3123 29.4878C41.5524 29.4448 41.7853 29.6055 41.8291 29.8477C41.8729 30.0898 41.7128 30.3221 41.4709 30.3666C40.158 30.6051 38.6789 31.181 38.5689 31.6581C38.5323 31.8146 38.7114 32.0521 39.0591 32.3097C39.7277 32.8053 40.5187 32.9288 41.41 32.6775C42.9278 32.2492 44.1287 30.9435 44.2335 30.6859C44.3248 30.4597 44.5835 30.3447 44.81 30.4337C45.0365 30.5234 45.1515 30.7738 45.0658 31.0026C44.8438 31.5919 43.3645 33.0315 41.7095 33.5211C41.4661 33.5916 41.2261 33.6412 40.9909 33.669Z" fill="white"/>
<path d="M43.1172 39.0652C43.0773 39.0699 43.0365 39.0721 42.9954 39.0716C42.4726 39.0661 42.0454 38.6624 41.7268 37.8702C41.358 36.9556 41.4926 36.1253 41.8644 35.4233C41.8631 35.4235 41.8617 35.4236 41.8598 35.4239C41.4658 35.4703 40.3243 35.3469 39.8768 34.7374C39.7118 34.5129 39.5038 34.0355 39.9613 33.3639C40.6214 32.3932 43.3134 32.9901 44.4401 33.2914C44.6193 33.3394 44.7502 33.4942 44.7687 33.6795C44.7872 33.8648 44.6889 34.0419 44.5223 34.124C44.409 34.1799 41.7418 35.5302 42.5514 37.537C42.7562 38.0434 42.9372 38.1789 43.0042 38.1797C43.2557 38.1833 43.7711 37.4577 44.0379 36.8325C44.1344 36.6058 44.3964 36.5011 44.6218 36.5982C44.8479 36.6952 44.9524 36.9574 44.8559 37.1842C44.7268 37.4886 44.0536 38.9548 43.1172 39.0652ZM41.7665 34.5366C41.9743 34.5122 42.1759 34.638 42.242 34.8443C42.5205 34.487 42.8509 34.1755 43.1837 33.9188C41.8845 33.6717 40.8492 33.6681 40.6965 33.8683C40.6587 33.9239 40.5374 34.1144 40.5855 34.1965C40.7215 34.4284 41.4727 34.562 41.7295 34.543C41.7417 34.5402 41.7541 34.5381 41.7665 34.5366Z" fill="white"/>
<path d="M46.0323 43.7593C45.1234 43.8665 44.3673 43.6691 43.7775 43.1675C42.1753 41.8053 42.5183 38.7012 42.5339 38.5697C42.5627 38.325 42.7827 38.1508 43.0272 38.1791C43.2711 38.2082 43.4456 38.4297 43.4175 38.6743C43.4141 38.702 43.115 41.4365 44.3539 42.4872C44.8788 42.9326 45.65 43.0119 46.6467 42.7215C47.5447 42.4601 48.0968 42.0068 48.3349 41.3345C48.8988 39.7442 47.5325 37.2306 46.9591 36.396C46.8193 36.1931 46.87 35.9152 47.0721 35.775C47.2742 35.6348 47.5513 35.6866 47.6911 35.8895C47.7862 36.0272 50.0036 39.2922 49.1733 41.6346C48.8372 42.583 48.0709 43.2371 46.8949 43.5792C46.5939 43.6672 46.3061 43.7271 46.0323 43.7593Z" fill="white"/>
<path d="M39.4438 30.9569C39.3706 30.9655 39.2946 30.9559 39.2214 30.9253C39.0576 30.8568 35.1984 29.2101 34.8249 26.041C34.3606 22.1026 36.1186 21.4646 36.8962 21.3729C38.2547 21.2128 41.912 22.0283 42.8994 24.9981C42.9773 25.2323 42.8514 25.4851 42.6181 25.5625C42.3834 25.64 42.1327 25.514 42.0554 25.2798C41.1873 22.6702 37.826 22.1622 37.0007 22.2595C35.9029 22.3889 35.4441 23.6949 35.7083 25.9368C36.0205 28.5853 39.5274 30.0867 39.5629 30.1018C39.7895 30.1974 39.8965 30.4587 39.802 30.686C39.7387 30.8397 39.598 30.9387 39.4438 30.9569Z" fill="white"/>
<path d="M51.0606 24.6837C50.992 24.6918 50.9195 24.6837 50.8502 24.6573C50.6205 24.5693 50.5053 24.3117 50.5928 24.0813C51.2709 22.2967 50.7003 19.1202 49.3721 17.2835C48.9019 16.6329 48.1313 15.8681 47.134 15.9165C46.5303 15.9491 46.0708 16.1601 45.7291 16.5714C44.7984 17.691 45.0705 19.8483 45.0731 19.8699C45.0988 20.0657 44.9939 20.2549 44.814 20.3359C44.6346 20.4156 44.4238 20.3699 44.2949 20.2203C42.6079 18.2577 39.4689 15.1998 38.2273 15.3461C38.1339 15.3572 37.8509 15.3905 37.6966 16.0091C37.3021 17.5914 38.2833 20.8624 39.7902 21.9161C39.9916 22.0572 40.0416 22.3352 39.9011 22.5372C39.7606 22.7393 39.4836 22.7892 39.2822 22.6481C37.4583 21.3732 36.3568 17.7048 36.8335 15.7916C37.0977 14.7333 37.7548 14.5023 38.1227 14.4589C39.7779 14.2638 42.6642 17.1109 44.1529 18.7238C44.1971 17.8789 44.3939 16.7833 45.0431 16.0014C45.546 15.3949 46.2351 15.0637 47.0898 15.0248C48.1939 14.9711 49.2318 15.5708 50.0914 16.7593C51.6222 18.8752 52.2197 22.3032 51.4233 24.3996C51.3634 24.5602 51.2194 24.665 51.0606 24.6837Z" fill="white"/>
<path d="M35.4185 26.9387C35.3793 26.9433 35.3388 26.9428 35.2977 26.9363C35.2011 26.9211 32.927 26.5469 31.772 24.8647C31.1561 23.968 30.9779 22.8827 31.2407 21.639C31.5664 20.1027 32.5261 19.1951 33.9431 19.0866C35.979 18.9291 38.3508 20.4406 38.8641 21.7882C38.9515 22.0186 38.8369 22.2767 38.6073 22.3643C38.3786 22.4524 38.1211 22.3365 38.033 22.1062C37.6472 21.0926 35.5885 19.854 34.0122 19.9766C32.9932 20.0602 32.3544 20.678 32.1113 21.8249C31.9011 22.8177 32.0325 23.6685 32.5022 24.3545C33.4363 25.7197 35.4159 26.0508 35.4355 26.0538C35.6779 26.093 35.8433 26.3208 35.8057 26.5646C35.774 26.7671 35.612 26.9159 35.4185 26.9387Z" fill="white"/>
<path d="M31.6263 22.8933C31.5401 22.9035 31.4488 22.8883 31.3661 22.8442C29.3706 21.7823 27.7053 19.5254 27.4057 17.4777C27.2157 16.1811 27.5619 15.0539 28.4056 14.2191C30.8856 11.7641 36.8208 16.584 37.4894 17.1414C37.6782 17.2987 37.7041 17.5802 37.5476 17.7702C37.3905 17.9602 37.1106 17.9859 36.9211 17.828C35.2761 16.4569 30.6514 13.251 29.0305 14.8555C28.3873 15.4918 28.1371 16.3311 28.2864 17.35C28.5482 19.1381 30.0184 21.1176 31.7834 22.0564C32.0005 22.1724 32.0833 22.4419 31.9685 22.6602C31.8968 22.7936 31.7668 22.8768 31.6263 22.8933Z" fill="white"/>
<path d="M27.169 29.7806C26.5594 29.8525 25.9424 29.8514 25.3305 29.752C23.5431 29.4607 22.3665 28.4386 22.3324 27.1482C22.2727 24.8715 25.4681 22.8147 30.879 21.6464C31.12 21.594 31.3561 21.7477 31.4077 21.9889C31.4593 22.2302 31.3071 22.4675 31.0667 22.5191C25.2204 23.782 23.1866 25.7896 23.2215 27.1258C23.2438 27.9669 24.1269 28.6519 25.4718 28.871C29.2312 29.4857 33.5168 25.7068 33.5594 25.6692C33.7436 25.5059 34.0244 25.522 34.1872 25.7063C34.3507 25.8904 34.3343 26.1729 34.1508 26.3361C33.9915 26.4793 30.7186 29.3622 27.169 29.7806Z" fill="white"/>
<path d="M45.2708 16.9587C45.0675 16.9827 44.8686 16.8632 44.7984 16.6614C44.7873 16.6288 43.5574 13.2767 38.7937 11.7127C37.7261 11.3618 36.9624 11.4026 36.5227 11.8321C35.5599 12.7747 36.0864 15.4485 36.3707 16.3989C36.4416 16.6352 36.3079 16.8836 36.0724 16.9546C35.8384 17.0261 35.5893 16.8919 35.5184 16.6556C35.3974 16.253 34.3827 12.6807 35.9002 11.1941C36.5951 10.5132 37.6613 10.4021 39.0693 10.8644C44.2762 12.5736 45.586 16.2155 45.6386 16.3695C45.7191 16.6027 45.5959 16.8566 45.3636 16.9371C45.3338 16.948 45.3021 16.955 45.2708 16.9587Z" fill="white"/>
<path d="M54.1499 40.667C53.5722 40.735 52.9669 40.686 52.3408 40.5172C50.0068 39.8888 47.7356 37.5669 47.0565 35.1166C46.9908 34.879 47.1294 34.6333 47.3661 34.5668C47.6029 34.5017 47.8477 34.6397 47.9142 34.8778C48.5152 37.0482 50.5176 39.1019 52.5711 39.655C53.5085 39.9075 54.8859 39.9526 56.1252 38.7308C56.8732 37.9944 57.1801 37.3273 57.0379 36.7497C56.7902 35.745 55.2369 35.0725 54.6591 34.8979C54.4262 34.8276 54.2926 34.5821 54.3596 34.3468C54.4266 34.1115 54.6702 33.9751 54.9045 34.0399C56.9005 34.5891 58.3294 33.2612 59.0013 31.8351C59.6459 30.4686 59.6218 29.0221 58.9477 28.5417C57.217 27.3097 53.5751 28.1352 53.5383 28.1436C53.3246 28.1914 53.1073 28.0793 53.0251 27.8763C52.9429 27.6732 53.02 27.4394 53.2075 27.3269C55.1179 26.1723 57.0304 24.0454 56.9254 22.4861C56.8796 21.8113 56.4448 21.3034 55.5963 20.9347C54.7304 20.5581 53.9749 20.5281 53.3499 20.8465C52.1197 21.4708 51.711 23.2137 51.7071 23.2315C51.6526 23.4719 51.4139 23.6224 51.1742 23.5669C50.9345 23.512 50.785 23.2724 50.8395 23.0319C50.8596 22.9438 51.3502 20.8615 52.9479 20.0495C53.8199 19.6064 54.8297 19.6296 55.949 20.1153C57.4035 20.747 57.7654 21.7209 57.8135 22.4266C57.9144 23.9292 56.6767 25.6933 55.1479 27.0111C56.4892 26.9075 58.2798 26.973 59.4615 27.8143C60.6512 28.6607 60.535 30.671 59.805 32.2177C59.2501 33.3947 58.1857 34.5886 56.7218 34.9506C57.2529 35.3421 57.736 35.8662 57.9011 36.5362C58.1245 37.442 57.7367 38.3952 56.7483 39.3687C55.9886 40.1178 55.1085 40.554 54.1499 40.667Z" fill="white"/>
<path d="M46.0829 16.2016C45.9953 16.2119 45.9047 16.196 45.8212 16.1513C45.788 16.1333 42.5096 14.3218 43.1384 10.8716C43.3264 9.84151 43.9311 9.17119 44.8412 8.98347C46.8286 8.57235 49.6615 10.4716 50.9592 12.4309C51.0953 12.6362 51.0399 12.9134 50.8347 13.0499C50.6302 13.1864 50.3539 13.1298 50.2183 12.9244C48.9795 11.0533 46.4559 9.569 45.0211 9.8578C44.4668 9.97234 44.1377 10.3562 44.0141 11.033C43.5032 13.837 46.1309 15.3044 46.2434 15.3656C46.4593 15.4831 46.5396 15.7535 46.4234 15.9706C46.3509 16.1035 46.2221 16.1852 46.0829 16.2016Z" fill="white"/>
<path d="M55.8252 20.9683C55.769 20.9749 55.7109 20.9711 55.6533 20.9546C55.4169 20.8881 55.2785 20.6418 55.344 20.4047C55.917 18.3413 55.2262 14.903 53.8651 13.0463C53.4672 12.5035 52.8299 11.852 52.0519 11.8274C51.7766 11.8192 51.5618 11.913 51.3766 12.1243C50.3812 13.2622 50.7209 16.9706 50.9357 18.3035C50.975 18.5469 50.8098 18.7758 50.5674 18.8157C50.3252 18.8515 50.0966 18.689 50.0573 18.4456C49.9713 17.9126 49.2596 13.1903 50.7076 11.535C51.0655 11.1258 51.5398 10.9177 52.0786 10.9353C52.9776 10.9629 53.843 11.5098 54.5819 12.5177C56.1064 14.5972 56.8478 18.3187 56.2011 20.6447C56.1521 20.8247 55.999 20.9478 55.8252 20.9683Z" fill="white"/>
<path d="M51.2381 47.4585C51.1192 47.4725 50.9971 47.4822 50.8719 47.4883C47.5733 47.8765 46.3885 43.4513 46.3397 43.263C46.2778 43.0243 46.4208 42.7814 46.658 42.7195C46.8972 42.6581 47.1386 42.8005 47.2005 43.0392C47.2104 43.0779 48.2387 46.9006 50.7695 46.6022C50.7734 46.6018 50.7772 46.6 50.7825 46.6007C50.793 46.5995 50.8041 46.5981 50.8147 46.5982C51.8127 46.555 52.5034 46.221 52.9284 45.5832C54.0937 43.8342 52.8832 40.4167 52.8713 40.3829C52.7907 40.1597 52.8986 39.9122 53.1164 39.8201C53.3341 39.7279 53.5858 39.8232 53.6898 40.0364C54.6208 41.9604 56.7711 42.7002 58.4107 42.4345C59.0329 42.3345 60.5041 41.9218 60.7226 40.2678C61.1256 37.2232 57.2251 36.4404 57.059 36.4081C56.8503 36.3682 56.6989 36.1859 56.6971 35.9734C56.6952 35.7609 56.8436 35.5758 57.0512 35.5327C57.1036 35.5219 62.3255 34.4137 63.7159 32.1516C64.0289 31.6427 64.1093 31.1279 63.9629 30.5767C63.7166 29.651 63.276 29.0441 62.6537 28.7731C61.4436 28.2469 59.8731 29.0762 59.8569 29.0848C59.6544 29.1938 59.4017 29.1298 59.2749 28.9366C59.1482 28.7435 59.1887 28.4861 59.3679 28.3426C60.6633 27.3044 64.0108 24.1267 63.9443 21.91C63.9254 21.2773 63.6301 20.7676 63.0417 20.351C59.5862 17.9021 56.7618 20.9762 56.6435 21.1078C56.4795 21.2907 56.1977 21.3059 56.0154 21.1413C55.833 20.9766 55.817 20.6953 55.9802 20.5118C56.0148 20.4732 59.4444 16.7108 63.5546 19.621C64.3765 20.2029 64.8068 20.9647 64.8344 21.8842C64.895 23.9215 62.8645 26.2836 61.3941 27.7208C61.9103 27.6766 62.4714 27.7208 63.0029 27.9521C63.8896 28.3369 64.502 29.1423 64.8229 30.347C65.0332 31.1367 64.9154 31.9018 64.4734 32.6207C63.3887 34.3841 60.5286 35.4799 58.7424 36.0135C60.2913 36.7046 61.9101 38.0841 61.6056 40.3851C61.3992 41.9445 60.2583 43.0398 58.5536 43.3152C57.1668 43.5391 55.4766 43.1613 54.2075 42.1068C54.4013 43.3632 54.4229 44.9463 53.6705 46.0781C53.144 46.8668 52.3274 47.3301 51.2381 47.4585Z" fill="white"/>
<path d="M38.5592 41.9549C38.0377 42.0164 37.5198 41.9106 37.0126 41.638C35.8885 41.0331 35.4333 39.8296 35.8241 38.497C36.4493 36.3643 39.0784 34.2587 42.7232 34.5584C42.968 34.5787 43.1504 34.7939 43.131 35.0395C43.111 35.2852 42.8969 35.4647 42.6518 35.4484C39.4776 35.189 37.2046 36.9548 36.6781 38.7494C36.5491 39.1901 36.3637 40.2757 37.4327 40.8518C37.9031 41.1048 38.3631 41.1457 38.8408 40.977C40.5065 40.3884 41.718 37.5583 41.7299 37.5303C41.8257 37.3036 42.0861 37.1971 42.3128 37.2934C42.5387 37.3891 42.6452 37.6511 42.5493 37.8778C42.4939 38.0093 41.1745 41.0982 39.1388 41.8188C38.9454 41.8868 38.752 41.9322 38.5592 41.9549Z" fill="white"/>
<path d="M40.2202 35.6281C38.1024 35.8777 35.1529 35.3332 34.3142 33.5013C34.3064 33.485 34.3003 33.4677 34.2943 33.4498C33.0594 29.5498 36.1664 27.9742 36.1977 27.9586C36.4189 27.8507 36.6847 27.9424 36.793 28.1636C36.9013 28.3856 36.8095 28.6523 36.5891 28.7608C36.4909 28.8102 34.1579 30.022 35.1338 33.1534C35.8578 34.669 38.9158 35.0498 40.7187 34.6405C40.9579 34.5904 41.1966 34.7378 41.2507 34.9781C41.305 35.219 41.1548 35.4574 40.9148 35.5117C40.6973 35.5606 40.464 35.5994 40.2202 35.6281Z" fill="white"/>
<path d="M32.1842 33.0335C31.5268 33.111 30.8051 32.9906 30.0682 32.5283C29.2955 32.0436 29.0883 31.4212 29.0507 30.9835C28.9125 29.3789 30.7334 27.6949 30.9413 27.5082C31.1247 27.3443 31.4054 27.3598 31.5689 27.5433C31.7329 27.7267 31.7178 28.0091 31.5345 28.1736C31.0607 28.5998 29.8511 29.9218 29.9361 30.9077C29.9663 31.2532 30.1632 31.5358 30.5381 31.7709C32.4483 32.9691 34.061 31.0425 34.1288 30.96C34.2846 30.7695 34.5648 30.7417 34.7542 30.8983C34.9442 31.054 34.9726 31.3346 34.8182 31.525C34.3434 32.1121 33.3683 32.8939 32.1842 33.0335Z" fill="white"/>
<path d="M32.9037 38.3206C32.0987 38.4155 31.4584 38.0641 31.1692 37.3536C30.3417 35.3243 33.7398 31.7498 34.1305 31.3487C34.3018 31.1723 34.5837 31.1696 34.7596 31.341C34.9357 31.5137 34.9391 31.7959 34.7678 31.9723C33.4518 33.3255 31.5342 35.8918 31.9933 37.0157C32.1406 37.3773 32.4585 37.5107 32.935 37.4114C33.9401 37.2038 35.3229 35.9624 35.2932 34.4122C35.2886 34.1654 35.4827 33.9623 35.7292 33.9572C35.9751 33.9528 36.1778 34.149 36.1824 34.3958C36.2188 36.3069 34.5947 37.9796 33.1149 38.2857C33.0425 38.3009 32.9723 38.3125 32.9037 38.3206Z" fill="white"/>
<path d="M43.6023 50.7116C43.5559 50.717 43.5093 50.7212 43.4619 50.7234C42.5724 50.7764 41.7548 50.3489 41.0974 49.487C39.4087 47.2733 39.0807 42.8276 39.9155 40.3318C39.9939 40.0978 40.2461 39.9724 40.4786 40.0507C40.7119 40.1296 40.8371 40.3827 40.7586 40.616C39.9419 43.0572 40.4594 47.1827 41.8032 48.9444C42.2796 49.5684 42.8191 49.8678 43.4079 49.8323C43.797 49.8057 44.1059 49.6443 44.3538 49.3305C45.379 48.0289 45.0555 44.6105 44.8444 43.4035C44.8018 43.1605 44.9634 42.9294 45.2055 42.8869C45.4467 42.8365 45.6781 43.0067 45.7206 43.249C45.7546 43.4424 46.5332 48.0019 45.0524 49.8838C44.6751 50.3644 44.1878 50.6426 43.6023 50.7116Z" fill="white"/>
<path d="M26.3237 37.8744C25.7839 37.938 25.2757 37.9148 24.8335 37.7662C24.1354 37.532 23.6563 37.0313 23.4091 36.2773C22.1237 32.3533 29.0311 28.4515 29.3257 28.2872C29.5403 28.1681 29.8111 28.2453 29.9305 28.4606C30.05 28.6758 29.9727 28.9476 29.7583 29.0679C29.6924 29.1043 23.1974 32.7725 24.2549 35.9994C24.4112 36.4769 24.6924 36.7775 25.1146 36.9192C26.8756 37.5095 30.5413 35.3455 31.8052 34.4612C32.0065 34.3198 32.2841 34.3701 32.4245 34.5723C32.565 34.7745 32.5156 35.0529 32.3142 35.1937C32.149 35.3095 28.8871 37.5722 26.3237 37.8744Z" fill="white"/>
<path d="M37.1099 46.5716C37.0302 46.581 36.9495 46.5872 36.8683 46.5901C35.3187 46.6518 33.8921 45.5262 33.2342 43.7222C32.1293 40.6944 34.6093 38.8357 36.0751 38.276C36.3039 38.1879 36.5614 38.3038 36.6495 38.5341C36.7369 38.7644 36.6222 39.022 36.3933 39.1094C36.2539 39.1631 32.9923 40.4617 34.0699 43.4156C34.5925 44.8479 35.6767 45.7433 36.8327 45.6975C38.0381 45.6491 39.0329 44.6124 39.4996 42.9232C39.565 42.6854 39.8103 42.5461 40.0473 42.6126C40.2843 42.6784 40.4227 42.9247 40.3573 43.1625C39.8105 45.1397 38.6076 46.3951 37.1099 46.5716Z" fill="white"/>
<path d="M30.9127 44.8607C30.1417 44.9516 29.3307 44.9122 28.6291 44.5914C27.7852 44.2049 27.2236 43.4819 26.9606 42.4425C25.9097 38.2881 28.9186 36.1324 28.9492 36.1115C29.1513 35.9706 29.4281 36.0205 29.5686 36.2233C29.7091 36.4255 29.6596 36.7025 29.4589 36.8439C29.3526 36.9196 26.9286 38.6859 27.8233 42.2238C28.0192 42.9978 28.4032 43.5071 28.9978 43.7794C30.6835 44.5513 33.4229 43.1846 33.4505 43.1714C33.6701 43.0617 33.9374 43.1486 34.0483 43.3695C34.159 43.5898 34.0707 43.8582 33.8519 43.9691C33.7668 44.011 32.4163 44.6835 30.9127 44.8607Z" fill="white"/>
<path d="M60.9716 70.6676C60.8409 70.683 60.7047 70.6405 60.6047 70.54C60.4305 70.3657 60.4309 70.0831 60.6045 69.9084C69.6302 60.8491 73.1828 53.1669 73.7898 50.9711C74.1549 49.6503 74.1935 47.9657 73.4153 47.3892C72.6923 46.8535 71.1995 47.2628 69.213 48.5421C63.7171 52.0807 61.2731 67.8131 61.2494 67.9715C61.2125 68.2152 60.985 68.3816 60.7428 68.345C60.4999 68.3078 60.3333 68.0801 60.3702 67.8365C60.4708 67.173 62.9001 51.5461 68.7328 47.7903C71.119 46.2538 72.8721 45.8776 73.9435 46.6708C75.144 47.5591 75.073 49.6717 74.6475 51.2104C74.0226 53.4688 70.3955 61.3446 61.2341 70.5396C61.16 70.6141 61.067 70.6564 60.9716 70.6676Z" fill="white"/>
<path d="M60.1535 87.5235C60.0412 87.5368 59.925 87.5065 59.831 87.4345C51.6079 81.1125 49.9225 75.0656 49.0175 71.8168C48.8968 71.3836 48.7924 71.009 48.6882 70.6875C48.5438 70.2431 48.3783 69.7613 48.2069 69.2623C47.1208 66.102 46.403 63.7839 47.0593 62.7358C47.2499 62.4308 47.5468 62.2462 47.9167 62.2026C54.9556 61.6428 58.3142 72.2282 58.7676 77.1431C59.1419 81.1951 60.52 86.9172 60.5341 86.9747C60.5783 87.159 60.5029 87.3507 60.3447 87.4538C60.2851 87.4927 60.2195 87.5157 60.1535 87.5235ZM48.0036 63.0919C47.9017 63.1039 47.8513 63.1491 47.8116 63.2116C47.3311 63.9796 48.3637 66.9847 49.0467 68.9732C49.22 69.4766 49.3867 69.9636 49.533 70.4124C49.6432 70.7518 49.75 71.1348 49.8738 71.5776C50.714 74.5914 52.2467 80.0904 59.3827 85.9409C58.9509 84.0039 58.1549 80.1845 57.8809 77.225C57.5155 73.271 54.4965 62.5759 48.0036 63.0919Z" fill="white"/>
</svg>
